# xmcd
#
# Track frame offsets:
#	150
#	13329
#	29494
#	44639
#	52684
#	64049
#	79461
#	92230
#	104947
#	117503
#	128215
#	139841
#	155258
#	168957
#	188763
#	203467
#	219159
#	233088
#	246233
#	259179
#	272508
#	284496
#	299581
#	311882
#
# Disc length: 4343 seconds
#
# Revision: 1
# Processed by: cddbd v1.5.1PL2 Copyright (c) Steve Scherf et al.
# Submitted via: EasyCDDAExtractor 8.2.3.1
#
DISCID=6f10f518
DTITLE=Jacó e Jacózinho - Os Grandes Sucessos
DYEAR=1977
DGENRE=Sertanejo
TTITLE0=Cheiro de onça
TTITLE1=Cacho de banana
TTITLE2=É fogo
TTITLE3=Começo do fim
TTITLE4=Por favor
TTITLE5=Muleta de arueira
TTITLE6=Artista sincero
TTITLE7=Duas moça
TTITLE8=Minha esposa vale ouro
TTITLE9=Casa pequena
TTITLE10=Flôr do mato
TTITLE11=Filho pobre
TTITLE12=Ninho de cobra
TTITLE13=Gato de três cores
TTITLE14=Tropa saudosa
TTITLE15=Caboclinha
TTITLE16=Florzinha do campo
TTITLE17=Conselho de um ladrão
TTITLE18=Conselho
TTITLE19=O bem amado
TTITLE20=Queria sonhar outra vez
TTITLE21=Motorista de chimarão
TTITLE22=Disco voador
TTITLE23=Cavalo preto
EXTD=
EXTT0=
EXTT1=
EXTT2=
EXTT3=
EXTT4=
EXTT5=
EXTT6=
EXTT7=
EXTT8=
EXTT9=
EXTT10=
EXTT11=
EXTT12=
EXTT13=
EXTT14=
EXTT15=
EXTT16=
EXTT17=
EXTT18=
EXTT19=
EXTT20=
EXTT21=
EXTT22=
EXTT23=
PLAYORDER=
